<svg id="Layer_1" data-name="Layer 1" xmlns="http://www.w3.org/2000/svg" viewBox="0 0 197.61 198.52"><defs><style>.cls-1{fill:#4f39f6;}.cls-2{fill:#fff;}</style></defs><circle class="cls-1" cx="98.8" cy="99.26" r="91.34"/><path class="cls-2" d="M33.89,67.2H78.25l-1.86,9H44.93l-2.06,9.85H72.73l-1.79,8.64H41.07l-2.26,10.91H70.54l-1.86,9H24Z"/><path class="cls-2" d="M108.6,110.23h-.14c-4.79,4.59-10,5.79-15.3,5.79-11,0-18.62-6.32-16-18.76C79.53,85.69,90,78.1,101.08,78.1c6.65,0,11,2.13,12.57,5.33h.13l3.53-17H129l-10,48.29H107.73Zm-10.38-2.86c5.85,0,11.77-3.59,13.17-10.31s-3-10.31-8.85-10.31S90.77,90.34,89.37,97.06,92.3,107.37,98.22,107.37Z"/><path class="cls-2" d="M158,109.9h-.13C155.16,113,148.78,116,142,116c-6.05,0-14.76-2.4-12.63-12.84l5-24.14h11.71l-4.33,20.62c-1,4.85,1.2,7.31,6.52,7.31,6.39,0,10.65-3.46,12-10.11L164,79h11.71l-7.39,35.65H157Z"/><path class="cls-2" d="M57,141.84c-.25,1.13.38,2.53,3.44,2.53s4.07-1.09,4.26-2-.17-1.42-2-1.69l-3.88-.53c-1.76-.26-3.1-1.37-2.72-3.34.55-2.58,3-4.07,6.6-4.07,4.17,0,5.56,1.78,5.3,4.24H65.6c.19-1.28-.79-2.37-3.3-2.37-1.54,0-3.42.46-3.73,1.93-.17.85.12,1.35,1.78,1.57l3.32.46c3.09.45,4.07,1.58,3.71,3.34-.58,2.94-3.37,4.31-7.22,4.31-2.89,0-6-.74-5.54-4.4Z"/><path class="cls-2" d="M71.65,133.19h2.4L73.69,135h0a7.4,7.4,0,0,1,5.23-2c3.78,0,6.36,2.43,5.46,6.67a8.23,8.23,0,0,1-8.23,6.67c-1.9,0-3.69-.67-4.39-2h0l-1.33,6.48H68Zm6.57,1.73a5.59,5.59,0,0,0-5.63,4.65c-.61,2.92.89,4.65,3.7,4.65a5.5,5.5,0,0,0,5.59-4.65C82.41,137.16,81.47,134.92,78.22,134.92Z"/><path class="cls-2" d="M89.37,128.47h2.41l-1.37,6.62h0a7,7,0,0,1,5.42-2.33c3,0,5,1.3,4.38,4.45l-1.78,8.6H96.07l1.68-8.12c.39-1.85-.53-2.91-3.13-2.91a4.84,4.84,0,0,0-4.93,3.76l-1.5,7.27H85.78Z"/><path class="cls-2" d="M104.81,140.22c-.39,2.63,1.69,4,3.81,4a5.39,5.39,0,0,0,4.55-2.24h2.55a8.77,8.77,0,0,1-7.39,4.26c-4.92,0-6.7-3.1-5.93-6.74a8.44,8.44,0,0,1,8.72-6.74c3.33,0,6.46,1.92,5.35,7.15l0,.31Zm9.44-1.88c.12-2.28-1.42-3.56-3.66-3.56a5.67,5.67,0,0,0-5.32,3.56Z"/><path class="cls-2" d="M120.56,133.19H123l-.48,2.31h.05a6.15,6.15,0,0,1,4.91-2.74,4.59,4.59,0,0,1,1.35.14l-.56,2.6a5,5,0,0,0-1.63-.24,4.85,4.85,0,0,0-4.92,4.14l-1.32,6.41H118Z"/><path class="cls-2" d="M131.16,140.22c-.38,2.63,1.69,4,3.81,4a5.39,5.39,0,0,0,4.55-2.24h2.55a8.77,8.77,0,0,1-7.39,4.26c-4.92,0-6.7-3.1-5.93-6.74a8.44,8.44,0,0,1,8.72-6.74c3.32,0,6.45,1.92,5.35,7.15l0,.31Zm9.44-1.88c.12-2.28-1.42-3.56-3.66-3.56a5.67,5.67,0,0,0-5.32,3.56Z"/></svg>